<?xml version="1.0" encoding="utf-8"?>
<!-- Generator: Adobe Illustrator 22.1.0, SVG Export Plug-In . SVG Version: 6.00 Build 0)  -->
<svg version="1.1" id="Layer_1" xmlns="http://www.w3.org/2000/svg" xmlns:xlink="http://www.w3.org/1999/xlink" x="0px" y="0px"
	 viewBox="0 0 792 612" style="enable-background:new 0 0 792 612;" xml:space="preserve">
<style type="text/css">
	.st0{fill:#FFFFFF;stroke:#000000;stroke-miterlimit:10;}
</style>
<circle class="st0" cx="358" cy="189.3" r="148.8"/>
<circle class="st0" cx="295.8" cy="115.7" r="23.2"/>
<circle class="st0" cx="409.5" cy="115.7" r="23.2"/>
<path class="st0" d="M402.8,268.2h-89.7c-6.6,0-12-5.4-12-12v-37c0-6.6,5.4-12,12-12h89.7c6.6,0,12,5.4,12,12v37
	C414.8,262.8,409.4,268.2,402.8,268.2z"/>
<path class="st0" d="M356.5,171L356.5,171c-2.3,0-4.3-1.9-4.3-4.3v0c0-2.3,1.9-4.3,4.3-4.3h0c2.3,0,4.3,1.9,4.3,4.3v0
	C360.8,169.1,358.9,171,356.5,171z"/>
<path class="st0" d="M285.6,113.4l6.5-7.4c1.5-1.8,4.3-1.9,6-0.4l7.4,6.5c1.8,1.5,1.9,4.3,0.4,6l-6.5,7.4c-1.5,1.8-4.3,1.9-6,0.4
	l-7.4-6.5C284.2,117.9,284.1,115.2,285.6,113.4z"/>
<path class="st0" d="M399.3,113.4l6.5-7.4c1.5-1.8,4.3-1.9,6-0.4l7.4,6.5c1.8,1.5,1.9,4.3,0.4,6l-6.5,7.4c-1.5,1.8-4.3,1.9-6,0.4
	l-7.4-6.5C397.9,117.9,397.8,115.2,399.3,113.4z"/>
</svg>
